<?xml version="1.0" encoding="utf-8"?>
<!-- Generator: Adobe Illustrator 28.1.0, SVG Export Plug-In . SVG Version: 6.00 Build 0)  -->
<svg version="1.1" id="apple" xmlns="http://www.w3.org/2000/svg" xmlns:xlink="http://www.w3.org/1999/xlink" x="0px" y="0px"
	 viewBox="0 0 500 500" style="enable-background:new 0 0 500 500;" xml:space="preserve">
<style type="text/css">
	.st0{fill:#3B6664;}
	.st1{fill:#B1C97D;}
	.st2{fill:none;stroke:#000000;stroke-width:15;stroke-linecap:round;stroke-linejoin:round;stroke-miterlimit:10;}

svg {
    cursor: pointer;
	}

svg:hover .st2 {
  stroke-dasharray: 100;
  animation: dash 5s linear infinite;
}

@keyframes dash {
  to {
    stroke-dashoffset: 1000;
  }
}

</style>

<script>
let thePath = document.querySelector("apple");

function logMyId() { 
    console.log("Apple");
}

document.addEventListener('click', logMyId);
</script>



<g id="leaf_00000072993595275989761070000007253783360711359139_">
	<g>
		<path class="st0" d="M385.7,122.7c-61.8-26.4-128.2,28.1-131.6,30.9c2.2-28.3-2.2-51-9.5-69C264.7,61.8,326.2,4.2,428.9,15
			C428.9,15,432.4,57.7,385.7,122.7z"/>
	</g>
	<path class="st0" d="M385.7,122.7c-61.8-26.4-128.2,28.1-131.6,30.9c2.2-28.3-2.2-51-9.5-69C264.7,61.8,326.2,4.2,428.9,15
		C428.9,15,432.4,57.7,385.7,122.7z"/>
</g>
<path id="body_00000070109191979199786600000013801389819288966820_" class="st1" d="M245,464.6c-28.7,18.4-75.4,30.2-107.6,15.2
	c-23.3-10.9-38.5-35.5-53.4-55.4c-13.9-18.5-26.5-38-36.5-58.9c-24.7-51.4-30.9-109.2-9.3-162.9c2.5-6.3,5.4-12.5,8.5-18.6
	c69.5-133.8,191-30.2,191-30.2s4.7,3.7,14.3,0c0,0,121.5-103.6,191,30.2c51.2,98.6,2,203.7-68.1,278.3
	C341.3,498.2,283.6,489.5,245,464.6"/>
<g id="leafstroke">
	<g>
		<path class="st2" d="M385.7,122.7c-61.8-26.4-128.2,28.1-131.6,30.9c2.2-28.3-2.2-51-9.5-69C264.7,61.8,326.2,4.2,428.9,15
			C428.9,15,432.4,57.7,385.7,122.7z"/>
	</g>
	<path class="st2" d="M385.7,122.7c-61.8-26.4-128.2,28.1-131.6,30.9c2.2-28.3-2.2-51-9.5-69C264.7,61.8,326.2,4.2,428.9,15
		C428.9,15,432.4,57.7,385.7,122.7z"/>
</g>
<g id="stroke-body_00000012446063663992687180000009202584895530300338_">
	<path class="st2" d="M105.9,122.8c63.5-27.3,131.9,31,131.9,31s4.7,3.7,14.3,0c0,0,121.5-103.6,191,30.2
		c51.2,98.6,2,203.7-68.1,278.3c-33.7,35.9-91.4,27.1-130.1,2.3"/>
	<path class="st2" d="M245,464.6c-28.7,18.4-75.4,30.2-107.6,15.2c-23.3-10.9-38.5-35.5-53.4-55.4c-13.9-18.5-26.5-38-36.5-58.9
		c-24.7-51.4-30.9-109.2-9.3-162.9c2.5-6.3,5.4-12.5,8.5-18.6c9.8-18.8,20.6-32.9,31.9-43.3"/>
</g>
<path id="tip_00000116920107013717568130000002077397966467330714_" class="st2" d="M199.5,30.2c0,0,59.8,34.2,52.8,123.6"/>
</svg>
