<?xml version="1.0" encoding="utf-8"?>
<!-- Generator: Adobe Illustrator 28.1.0, SVG Export Plug-In . SVG Version: 6.00 Build 0)  -->
<svg version="1.1" id="pome" xmlns="http://www.w3.org/2000/svg" xmlns:xlink="http://www.w3.org/1999/xlink" x="0px" y="0px"
	 viewBox="0 0 430 500" style="enable-background:new 0 0 430 500;" xml:space="preserve">

<style type="text/css">
	.st0{fill:#5AAF4A;}
	.st1{fill:#50A042;}
	.st2{fill:#4352B8;}
	.st3{fill:#141945;}
	.st4{fill:#5F6CC3;}

svg {
    cursor: pointer;
	}

	
svg:hover #berry1 {
	animation: float 0.5s infinite alternate;
	transform-origin: bottom;
}

@keyframes float {
    0% {transform: translateY(0);}
    100% {transform: translateY(-40px);}
}

svg:hover #berry1_00000096743855091497999060000017381139261573240506_ {
	animation: float 0.8s infinite alternate;
	transform-origin: bottom;
}

@keyframes float {
    0% {transform: translateY(0);}
    100% {transform: translateY(-40px);}
}

svg:hover #leaf-left {
	animation: sway 1s infinite alternate;
	transform-origin: center;
}

@keyframes sway {
    0% {transform: rotate(0);}
	50% {transform: rotate(10deg);}
    100% {transform: rotate(0);}
}

svg:hover #leaf-right {
	animation: sway1 0.9s infinite alternate;
	transform-origin: center;
}

@keyframes sway1 {
    0% {transform: rotate(0);}
	50% {transform: rotate(-10deg);}
    100% {transform: rotate(0);}
}

</style>

<script>
let thePath = document.querySelector("pome");

function logMyId() {
    console.log("Berry");
}

document.addEventListener('click', logMyId);
</script>



<g id="leaf-left">
	<g>
		<path class="st0" d="M211.3,264.2c0,0,33.1-137.8-199.5-232.8C11.9,31.4-15.9,207.8,211.3,264.2z"/>
	</g>
	<g>
		<path d="M211.3,270.8c-0.5,0-1.1-0.1-1.6-0.2C-20.7,213.4,5.1,32.2,5.4,30.4c0.3-2,1.5-3.7,3.3-4.7c1.8-1,3.9-1.1,5.7-0.4
			c235.1,96.1,204.8,234.6,203.4,240.4c-0.4,1.7-1.5,3.2-3,4.1C213.7,270.5,212.5,270.8,211.3,270.8z M17.5,40.9
			c-2.2,35,2.4,165.8,188.3,215.1C208.3,228.3,204.6,120.3,17.5,40.9z"/>
	</g>
</g>
<g id="leaf-right">
	<g>
		<path class="st1" d="M211.5,274.7c0,0-33.1-137.8,199.5-232.8C411,41.9,438.7,218.3,211.5,274.7z"/>
	</g>
	<g>
		<path d="M211.5,281.2c-1.2,0-2.4-0.3-3.4-1c-1.5-0.9-2.6-2.4-3-4.1c-1.4-5.9-31.7-144.4,203.4-240.4c1.9-0.8,4-0.6,5.7,0.4
			c1.8,1,3,2.7,3.3,4.7c0.3,1.8,26,183-204.4,240.2C212.6,281.2,212.1,281.2,211.5,281.2z M405.3,51.3
			c-187,79.4-190.7,187.4-188.3,215.1C402.9,217.1,407.6,86.3,405.3,51.3z"/>
	</g>
</g>
<g id="berry1">
	<g>
		<circle class="st2" cx="127.1" cy="353.2" r="116.3"/>
	</g>
	<g>
		<path d="M127.2,475.4c-35,0-69.8-14.9-94-43.9C-9.9,379.8-3,302.6,48.8,259.4c2.8-2.3,6.9-2,9.3,0.8c2.3,2.8,2,6.9-0.8,9.3
			C11,308,4.8,377,43.4,423.1C81.9,469.3,150.9,475.5,197,437c22.4-18.7,36.1-44.9,38.7-74c2.6-29-6.2-57.3-24.9-79.7
			c-31-37.2-81.8-49.5-126.3-30.6c-3.3,1.4-7.2-0.1-8.6-3.5c-1.4-3.3,0.1-7.2,3.5-8.6c49.9-21.2,106.8-7.4,141.6,34.3
			c20.9,25.1,30.8,56.8,27.9,89.3c-2.9,32.5-18.3,62-43.4,82.9C182.7,466.1,154.9,475.4,127.2,475.4z"/>
	</g>
	<g>
		<circle class="st3" cx="122.7" cy="420" r="22.2"/>
	</g>
	<g>
		<path d="M116.3,456c-0.6,0-1.2-0.1-1.8-0.3c-2.4-0.7-4.2-2.7-4.7-5.2l-3-17l-15.7-7.1c-2.3-1-3.8-3.3-3.9-5.8
			c-0.1-2.5,1.3-4.8,3.5-6l15.2-8.1l1.9-17.1c0.3-2.5,1.9-4.6,4.3-5.5c2.3-0.8,5-0.3,6.8,1.4l12.4,11.9l16.9-3.5
			c2.5-0.5,5,0.4,6.5,2.4c1.5,2,1.8,4.7,0.7,6.9l-7.5,15.5l8.5,15c1.2,2.2,1.1,4.9-0.3,6.9c-1.4,2.1-3.8,3.2-6.4,2.8l-17.1-2.4
			l-11.6,12.7C119.9,455.2,118.1,456,116.3,456z M108.7,420l6.7,3c2,0.9,3.4,2.7,3.8,4.8l1.3,7.2l5-5.4c1.5-1.6,3.6-2.4,5.8-2.1
			l7.3,1l-3.6-6.4c-1.1-1.9-1.1-4.2-0.2-6.1l3.2-6.6l-7.2,1.5c-2.1,0.4-4.3-0.2-5.9-1.7l-5.3-5.1l-0.8,7.3c-0.2,2.2-1.5,4.1-3.4,5.1
			L108.7,420z M112,410.7L112,410.7L112,410.7z"/>
	</g>
</g>
<g id="berry1_00000096743855091497999060000017381139261573240506_">
	<g>
		<circle class="st4" cx="306.1" cy="353.2" r="116.3"/>
	</g>
	<g>
		<path d="M306.1,475.5c-67.4,0-122.3-54.9-122.3-122.3s54.9-122.3,122.3-122.3c3.6,0,6.6,2.9,6.6,6.6s-2.9,6.6-6.6,6.6
			C246,244.1,197,293.1,197,353.2S246,462.3,306.1,462.3s109.1-48.9,109.1-109.1c0-48.4-31.1-90.4-77.4-104.4
			c-3.5-1.1-5.4-4.7-4.4-8.2c1.1-3.5,4.7-5.4,8.2-4.4c51.9,15.7,86.7,62.8,86.7,117C428.4,420.6,373.5,475.5,306.1,475.5z"/>
	</g>
	<g>
		<circle class="st2" cx="310.5" cy="286.4" r="22.2"/>
	</g>
	<g>
		<path d="M318.9,322.9c-1.7,0-3.3-0.6-4.6-1.8l-12.4-11.9l-16.9,3.5c-2.5,0.5-5-0.4-6.5-2.4c-1.5-2-1.8-4.7-0.7-6.9l7.5-15.5
			l-8.5-15c-1.2-2.2-1.1-4.9,0.3-6.9c1.4-2.1,3.8-3.2,6.4-2.8l17.1,2.4l11.6-12.7c1.7-1.9,4.3-2.6,6.7-1.9c2.4,0.7,4.2,2.7,4.6,5.2
			l3,17l15.7,7.1c2.3,1,3.8,3.3,3.9,5.8c0.1,2.5-1.3,4.8-3.5,6l-15.2,8.1l-1.9,17.1c-0.3,2.5-2,4.6-4.3,5.5
			C320.4,322.7,319.6,322.9,318.9,322.9z M304,295.3c1.7,0,3.3,0.6,4.6,1.8l5.3,5.1l0.8-7.3c0.2-2.1,1.5-4,3.4-5.1l6.5-3.5l-6.7-3
			c-2-0.9-3.4-2.7-3.8-4.8l-1.3-7.2l-5,5.4c-1.5,1.6-3.6,2.4-5.8,2.1l-7.3-1l3.6,6.4c1.1,1.9,1.1,4.2,0.2,6.1l-3.2,6.6l7.2-1.5
			C303.1,295.4,303.5,295.3,304,295.3z"/>
	</g>
</g>
</svg>
