<?xml version="1.0" encoding="utf-8"?>
<!-- Generator: Adobe Illustrator 28.1.0, SVG Export Plug-In . SVG Version: 6.00 Build 0)  -->
<svg version="1.1" id="grape" xmlns="http://www.w3.org/2000/svg" xmlns:xlink="http://www.w3.org/1999/xlink" x="0px" y="0px"
	 viewBox="0 0 367.3 500" style="enable-background:new 0 0 367.3 500;" xml:space="preserve">
<style type="text/css">
	.st0{fill:#61A628;}
	.st1{fill:#975BCB;}


svg {
    cursor: pointer;
	}


svg:hover .st1 {
	opacity: 50%;
}

svg:hover .st0 {

	opacity: 50%;
}

svg:hover {
	transform: rotate(10deg);
	transition: all 0.5s ease;
}

</style>

<script>
let thePath = document.querySelector("grape");

function logMyId() {
    console.log("Grapes");
}

document.addEventListener('click', logMyId);
</script>



<g id="leaf_00000160887116125372782990000013778101358214091936_">
	<g>
		<path class="st0" d="M49,8.2c-0.7,19-1.5,45.1,7.1,72.7c-12.8,5-21.6,15.5-21.6,15.5c10.7,22,28.5,36.9,28.5,36.9l-14.7,23.8
			c64,48.3,95.8,21.5,108.1,4c19.5-4.5,61.4-23.8,34.6-104.6l-27.3,6.2c0,0-8.3-21.6-25.8-38.8c0,0-12.8,5-21.6,15.5
			C116.4,39.3,94.7,12.6,49,8.2z"/>
	</g>
	<g>
		<path d="M113,189.6c-20,0-42.8-9.5-67.8-28.4c-2.1-1.6-2.7-4.6-1.3-6.8l12.4-20.1c-5.9-5.6-18.2-18.4-26.5-35.6
			c-0.9-1.8-0.6-4,0.7-5.6c0.4-0.4,7.9-9.2,19.3-15c-7.7-27.7-6.6-54-6-70c0.1-1.4,0.7-2.8,1.8-3.7c1.1-0.9,2.5-1.4,3.9-1.3
			c36.5,3.5,58.4,20.7,66.8,28.8c9-8.5,19.2-12.6,19.7-12.8c1.9-0.8,4.1-0.3,5.5,1.1c13.6,13.4,21.8,29.2,25.2,36.5l23.1-5.3
			c2.6-0.6,5.2,0.9,6.1,3.4c11.7,35.3,11.9,63.3,0.7,83.3c-10,17.8-26.8,24.8-37.1,27.5c-7,9.4-18.9,20.4-37.3,23.3
			C119.2,189.4,116.1,189.6,113,189.6z M55.2,155.7c25.1,18.1,47,25.8,65.4,23c15.8-2.5,25.9-12.6,31.6-20.6c0.7-1,1.8-1.8,3.1-2.1
			c10.2-2.4,24.1-8.3,32.4-23c9.3-16.5,9.2-40.2-0.1-70.5l-22.6,5.2c-2.5,0.6-5.1-0.8-6-3.2c-0.1-0.2-7.4-18.8-22.1-34.5
			c-4,2-11.1,6.3-16.5,12.6c-1,1.2-2.4,1.8-3.9,1.8c0,0,0,0-0.1,0c-1.5,0-3-0.7-4-1.9C112.2,42.3,93,19.6,54,14
			c-0.6,17-0.6,40.6,7.1,65.4c0.8,2.6-0.5,5.3-3,6.3c-7.8,3.1-14,8.5-17.3,11.6c10.1,19,25.4,31.9,25.5,32c2,1.6,2.4,4.5,1.1,6.7
			L55.2,155.7z"/>
	</g>
	<g>
		<path d="M156.4,166.2c-1.6,0-3.2-0.8-4.2-2.2L90.4,76c-1.6-2.3-1.1-5.6,1.3-7.2c2.3-1.6,5.6-1.1,7.2,1.3l61.8,88
			c1.6,2.3,1.1,5.6-1.3,7.2C158.5,165.9,157.5,166.2,156.4,166.2z"/>
	</g>
	<g>
		<path d="M93.9,118.3c-4,0-8.3-0.4-12.8-1.1c-2.8-0.5-4.7-3.1-4.3-6c0.5-2.8,3.1-4.7,5.9-4.3c15,2.5,26.6,0.2,34.4-6.8
			c12.8-11.4,12-32.3,11.9-32.5c-0.1-2.9,2.1-5.3,4.9-5.4c2.9-0.1,5.3,2,5.4,4.9c0.1,1,1.2,25.9-15.3,40.7
			C116.4,114.8,106.3,118.3,93.9,118.3z"/>
	</g>
	<g>
		<path d="M94.3,155.2c-2.1,0-4.2-0.1-6.4-0.2c-2.9-0.2-5-2.7-4.8-5.5c0.2-2.9,2.7-5.1,5.5-4.8c58.3,3.9,77-52.9,77.8-55.4
			c0.9-2.7,3.7-4.2,6.5-3.4c2.7,0.9,4.2,3.8,3.4,6.5C176,93,155.9,155.2,94.3,155.2z"/>
	</g>
</g>
<g id="_x31_2_00000158708129863656553500000000453631551443315334_">
	<g>
		<circle class="st1" cx="183.2" cy="443.4" r="48.9"/>
	</g>
	<g>
		<path d="M183.2,497.4c-29.8,0-54-24.2-54-54s24.2-54,54-54s54,24.2,54,54S213,497.4,183.2,497.4z M183.2,399.7
			c-24.1,0-43.7,19.6-43.7,43.7c0,24.1,19.6,43.7,43.7,43.7c24.1,0,43.7-19.6,43.7-43.7C226.9,419.3,207.3,399.7,183.2,399.7z"/>
	</g>
</g>
<g id="_x31_0_00000074435875769293747250000010017855592404687255_">
	<g>
		<circle class="st1" cx="148.9" cy="386.6" r="48.9"/>
	</g>
	<g>
		<path d="M148.9,440.6c-29.8,0-54-24.2-54-54c0-29.8,24.2-54,54-54s54,24.2,54,54C203,416.4,178.7,440.6,148.9,440.6z M148.9,342.9
			c-24.1,0-43.7,19.6-43.7,43.7c0,24.1,19.6,43.7,43.7,43.7s43.7-19.6,43.7-43.7C192.6,362.5,173,342.9,148.9,342.9z"/>
	</g>
</g>
<g id="_x31_1_00000022540837933556822260000001097338570530547109_">
	<g>
		<circle class="st1" cx="228.1" cy="386.6" r="48.9"/>
	</g>
	<g>
		<path d="M228.1,440.6c-29.8,0-54-24.2-54-54c0-29.8,24.2-54,54-54c29.8,0,54,24.2,54,54C282.1,416.4,257.9,440.6,228.1,440.6z
			 M228.1,342.9c-24.1,0-43.7,19.6-43.7,43.7c0,24.1,19.6,43.7,43.7,43.7s43.7-19.6,43.7-43.7C271.8,362.5,252.2,342.9,228.1,342.9z
			"/>
	</g>
</g>
<g id="_x39__00000074444040282837602640000009602553139554849949_">
	<g>
		<circle class="st1" cx="265.1" cy="320.5" r="48.9"/>
	</g>
	<g>
		<path d="M265.1,374.6c-29.8,0-54-24.2-54-54s24.2-54,54-54s54,24.2,54,54S294.9,374.6,265.1,374.6z M265.1,276.8
			c-24.1,0-43.7,19.6-43.7,43.7s19.6,43.7,43.7,43.7c24.1,0,43.7-19.6,43.7-43.7S289.2,276.8,265.1,276.8z"/>
	</g>
</g>
<g id="_x37__00000065778763848763931050000016081690247911154842_">
	<g>
		<circle class="st1" cx="109.2" cy="320.5" r="48.9"/>
	</g>
	<g>
		<path d="M109.2,374.6c-29.8,0-54-24.2-54-54s24.2-54,54-54s54,24.2,54,54S139,374.6,109.2,374.6z M109.2,276.8
			c-24.1,0-43.7,19.6-43.7,43.7s19.6,43.7,43.7,43.7c24.1,0,43.7-19.6,43.7-43.7S133.3,276.8,109.2,276.8z"/>
	</g>
</g>
<g id="_x38__00000121252155114579497930000002044801453102446979_">
	<g>
		<circle class="st1" cx="183.2" cy="320.5" r="48.9"/>
	</g>
	<g>
		<path d="M183.2,374.6c-29.8,0-54-24.2-54-54s24.2-54,54-54s54,24.2,54,54S213,374.6,183.2,374.6z M183.2,276.8
			c-24.1,0-43.7,19.6-43.7,43.7s19.6,43.7,43.7,43.7c24.1,0,43.7-19.6,43.7-43.7S207.3,276.8,183.2,276.8z"/>
	</g>
</g>
<g id="_x36__00000179638053776618249340000007838719007275728533_">
	<g>
		<circle class="st1" cx="304.7" cy="252.8" r="48.9"/>
	</g>
	<g>
		<path d="M304.7,306.8c-29.8,0-54-24.2-54-54s24.2-54,54-54s54,24.2,54,54S334.5,306.8,304.7,306.8z M304.7,209.1
			c-24.1,0-43.7,19.6-43.7,43.7s19.6,43.7,43.7,43.7s43.7-19.6,43.7-43.7S328.8,209.1,304.7,209.1z"/>
	</g>
</g>
<g id="_x35__00000045578473638754958500000015809842841780392600_">
	<g>
		<circle class="st1" cx="224.1" cy="252.8" r="48.9"/>
	</g>
	<g>
		<path d="M224.1,306.8c-29.8,0-54-24.2-54-54s24.2-54,54-54s54,24.2,54,54S253.9,306.8,224.1,306.8z M224.1,209.1
			c-24.1,0-43.7,19.6-43.7,43.7s19.6,43.7,43.7,43.7c24.1,0,43.7-19.6,43.7-43.7S248.2,209.1,224.1,209.1z"/>
	</g>
</g>
<g id="_x33__00000114046908050562165870000003738006187523957143_">
	<g>
		<circle class="st1" cx="68.2" cy="252.8" r="48.9"/>
	</g>
	<g>
		<path d="M68.2,306.8c-29.8,0-54-24.2-54-54s24.2-54,54-54s54,24.2,54,54S98,306.8,68.2,306.8z M68.2,209.1
			c-24.1,0-43.7,19.6-43.7,43.7s19.6,43.7,43.7,43.7s43.7-19.6,43.7-43.7S92.3,209.1,68.2,209.1z"/>
	</g>
</g>
<g id="_x34__00000082335322548514896560000008983343664891014788_">
	<g>
		<circle class="st1" cx="142.2" cy="252.8" r="48.9"/>
	</g>
	<g>
		<path d="M142.2,306.8c-29.8,0-54-24.2-54-54s24.2-54,54-54s54,24.2,54,54S172,306.8,142.2,306.8z M142.2,209.1
			c-24.1,0-43.7,19.6-43.7,43.7s19.6,43.7,43.7,43.7s43.7-19.6,43.7-43.7S166.3,209.1,142.2,209.1z"/>
	</g>
</g>
<g id="_x32__00000134932359192414960990000008026476724935054990_">
	<g>
		<circle class="st1" cx="265.1" cy="184.4" r="48.9"/>
	</g>
	<g>
		<path d="M265.1,238.5c-29.8,0-54-24.2-54-54s24.2-54,54-54s54,24.2,54,54S294.9,238.5,265.1,238.5z M265.1,140.8
			c-24.1,0-43.7,19.6-43.7,43.7s19.6,43.7,43.7,43.7c24.1,0,43.7-19.6,43.7-43.7S289.2,140.8,265.1,140.8z"/>
	</g>
</g>
<g id="_x31__00000006684763944144610320000005786396803053014409_">
	<g>
		<circle class="st1" cx="109.2" cy="184.4" r="48.9"/>
	</g>
	<g>
		<path d="M109.2,238.5c-29.8,0-54-24.2-54-54s24.2-54,54-54s54,24.2,54,54S139,238.5,109.2,238.5z M109.2,140.8
			c-24.1,0-43.7,19.6-43.7,43.7s19.6,43.7,43.7,43.7c24.1,0,43.7-19.6,43.7-43.7S133.3,140.8,109.2,140.8z"/>
	</g>
</g>
<g id="_x30__00000121259568993686561720000001269872240614599088_">
	<g>
		<circle class="st1" cx="183.2" cy="184.4" r="48.9"/>
	</g>
	<g>
		<path d="M183.2,238.5c-29.8,0-54-24.2-54-54s24.2-54,54-54s54,24.2,54,54S213,238.5,183.2,238.5z M183.2,140.8
			c-24.1,0-43.7,19.6-43.7,43.7s19.6,43.7,43.7,43.7c24.1,0,43.7-19.6,43.7-43.7S207.3,140.8,183.2,140.8z"/>
	</g>
</g>
<g id="tip_00000089535297588426265900000002135803041115411330_">
	<path d="M206,146.4c-0.7,0-1.5-0.1-2.1-0.5c-2.6-1.2-3.7-4.3-2.6-6.9c1.1-2.4,27.5-59,83.3-80.7c2.6-1,5.7,0.3,6.7,3
		c1,2.7-0.3,5.7-3,6.7c-51.9,20.1-77.4,74.8-77.7,75.3C209.9,145.3,208,146.4,206,146.4z"/>
</g>
</svg>
