<?xml version="1.0" encoding="utf-8"?>
<!-- Generator: Adobe Illustrator 28.1.0, SVG Export Plug-In . SVG Version: 6.00 Build 0)  -->
<svg version="1.1" id="grapes" xmlns="http://www.w3.org/2000/svg" xmlns:xlink="http://www.w3.org/1999/xlink" x="0px" y="0px"
	 viewBox="0 0 351.4 500" style="enable-background:new 0 0 351.4 500;" xml:space="preserve">
<style type="text/css">
	.st0{fill:#61A628;}
	.st1{fill:#975BCB;}
</style>
<g id="leaf_00000173147501289135814160000017502442031761558408_">
	<g>
		<path class="st0" d="M41.1,10.7c-0.7,18.8-1.5,44.6,7,72C35.5,87.7,26.7,98,26.7,98c10.6,21.8,28.2,36.5,28.2,36.5l-14.5,23.6
			c63.4,47.9,94.9,21.3,107,3.9c19.3-4.5,60.7-23.5,34.3-103.6l-27,6.2c0,0-8.3-21.4-25.5-38.4c0,0-12.6,5-21.4,15.3
			C107.7,41.5,86.2,15,41.1,10.7z"/>
	</g>
	<g>
		<path d="M104.4,190.3c-19.8,0-42.3-9.4-67.1-28.1c-2.1-1.6-2.7-4.5-1.3-6.8l12.3-19.9c-5.8-5.5-18-18.2-26.2-35.2
			c-0.9-1.8-0.6-4,0.7-5.6c0.4-0.4,7.8-9.1,19.2-14.9c-7.6-27.4-6.6-53.5-5.9-69.3c0.1-1.4,0.7-2.7,1.7-3.7c1.1-0.9,2.4-1.4,3.9-1.2
			c36.2,3.5,57.8,20.5,66.2,28.5c8.9-8.4,19-12.5,19.5-12.7c1.9-0.8,4-0.3,5.5,1.1c13.4,13.2,21.6,28.9,24.9,36.1l22.8-5.2
			c2.5-0.6,5.2,0.9,6,3.4c11.6,34.9,11.8,62.7,0.7,82.5c-9.9,17.6-26.6,24.6-36.8,27.3c-6.9,9.3-18.7,20.2-36.9,23.1
			C110.6,190.1,107.5,190.3,104.4,190.3z M47.2,156.8c24.8,17.9,46.6,25.6,64.8,22.7c15.7-2.5,25.7-12.5,31.2-20.4
			c0.7-1,1.8-1.8,3-2c10.1-2.4,23.9-8.2,32-22.8c9.2-16.4,9.2-39.8-0.1-69.8l-22.4,5.1c-2.5,0.5-5-0.8-5.9-3.1
			c-0.1-0.2-7.3-18.6-21.9-34.1c-4,2-11,6.2-16.4,12.5c-1,1.2-2.6,1.9-4,1.8c-1.5,0-3-0.7-3.9-1.9C103.6,44.5,84.6,22,46,16.4
			c-0.6,16.9-0.6,40.2,7,64.7c0.8,2.6-0.5,5.3-3,6.3c-7.7,3.1-13.9,8.4-17.1,11.5c10,18.8,25.1,31.5,25.3,31.7
			c1.9,1.6,2.4,4.4,1.1,6.6L47.2,156.8z"/>
	</g>
	<g>
		<path d="M147.4,167.2c-1.6,0-3.2-0.8-4.2-2.2L82,77.8c-1.6-2.3-1.1-5.5,1.2-7.1c2.3-1.6,5.5-1.1,7.1,1.2l61.2,87.1
			c1.6,2.3,1.1,5.5-1.2,7.1C149.4,166.9,148.4,167.2,147.4,167.2z"/>
	</g>
	<g>
		<path d="M85.5,119.7c-4,0-8.2-0.4-12.7-1.1c-2.8-0.5-4.7-3.1-4.2-5.9c0.5-2.8,3.1-4.7,5.9-4.2c14.9,2.5,26.3,0.2,34.1-6.7
			c12.7-11.3,11.8-31.9,11.8-32.2c-0.1-2.8,2-5.2,4.9-5.4c2.9-0.1,5.2,2,5.4,4.8c0.1,1,1.2,25.6-15.2,40.3
			C107.8,116.3,97.8,119.7,85.5,119.7z"/>
	</g>
	<g>
		<path d="M85.9,156.2c-2.1,0-4.2-0.1-6.3-0.2c-2.8-0.2-5-2.6-4.8-5.5c0.2-2.8,2.7-5,5.5-4.8c57.7,3.9,76.2-52.4,77-54.8
			c0.9-2.7,3.7-4.2,6.4-3.4c2.7,0.8,4.2,3.7,3.4,6.4C166.8,94.7,146.8,156.2,85.9,156.2z"/>
	</g>
</g>
<g id="_x31_2_00000024722255672314902070000002952824211028833948_">
	<g>
		<circle class="st1" cx="173.9" cy="441.5" r="48.4"/>
	</g>
	<g>
		<path d="M173.9,495c-29.5,0-53.5-24-53.5-53.5c0-29.5,24-53.5,53.5-53.5s53.5,24,53.5,53.5C227.4,471,203.4,495,173.9,495z
			 M173.9,398.3c-23.8,0-43.2,19.4-43.2,43.2c0,23.8,19.4,43.2,43.2,43.2c23.8,0,43.2-19.4,43.2-43.2
			C217.1,417.7,197.7,398.3,173.9,398.3z"/>
	</g>
</g>
<g id="_x31_1_00000142867175216019944810000018022079087804194970_">
	<g>
		<circle class="st1" cx="218.3" cy="385.3" r="48.4"/>
	</g>
	<g>
		<path d="M218.3,438.8c-29.5,0-53.5-24-53.5-53.5c0-29.5,24-53.5,53.5-53.5s53.5,24,53.5,53.5C271.8,414.8,247.8,438.8,218.3,438.8
			z M218.3,342c-23.8,0-43.2,19.4-43.2,43.2c0,23.8,19.4,43.2,43.2,43.2c23.8,0,43.2-19.4,43.2-43.2
			C261.6,361.4,242.2,342,218.3,342z"/>
	</g>
</g>
<g id="_x31_0_00000049924674107891777440000007638332149383026343_">
	<g>
		<circle class="st1" cx="140" cy="385.3" r="48.4"/>
	</g>
	<g>
		<path d="M140,438.8c-29.5,0-53.5-24-53.5-53.5c0-29.5,24-53.5,53.5-53.5s53.5,24,53.5,53.5C193.4,414.8,169.4,438.8,140,438.8z
			 M140,342c-23.8,0-43.2,19.4-43.2,43.2c0,23.8,19.4,43.2,43.2,43.2c23.8,0,43.2-19.4,43.2-43.2C183.2,361.4,163.8,342,140,342z"/>
	</g>
</g>
<g id="_x39__00000137125227031346956960000014419677534028412845_">
	<g>
		<circle class="st1" cx="255" cy="319.9" r="48.4"/>
	</g>
	<g>
		<path d="M255,373.4c-29.5,0-53.5-24-53.5-53.5c0-29.5,24-53.5,53.5-53.5s53.5,24,53.5,53.5C308.4,349.4,284.5,373.4,255,373.4z
			 M255,276.7c-23.8,0-43.2,19.4-43.2,43.2c0,23.8,19.4,43.2,43.2,43.2c23.8,0,43.2-19.4,43.2-43.2
			C298.2,296.1,278.8,276.7,255,276.7z"/>
	</g>
</g>
<g id="_x37__00000127012571004732698400000009500364847017464481_">
	<g>
		<circle class="st1" cx="100.6" cy="319.9" r="48.4"/>
	</g>
	<g>
		<path d="M100.6,373.4c-29.5,0-53.5-24-53.5-53.5c0-29.5,24-53.5,53.5-53.5s53.5,24,53.5,53.5C154.1,349.4,130.1,373.4,100.6,373.4
			z M100.6,276.7c-23.8,0-43.2,19.4-43.2,43.2c0,23.8,19.4,43.2,43.2,43.2c23.8,0,43.2-19.4,43.2-43.2
			C143.9,296.1,124.5,276.7,100.6,276.7z"/>
	</g>
</g>
<g id="_x38__00000150100494758830429900000011045170636771958696_">
	<g>
		<circle class="st1" cx="173.9" cy="319.9" r="48.4"/>
	</g>
	<g>
		<path d="M173.9,373.4c-29.5,0-53.5-24-53.5-53.5c0-29.5,24-53.5,53.5-53.5s53.5,24,53.5,53.5C227.4,349.4,203.4,373.4,173.9,373.4
			z M173.9,276.7c-23.8,0-43.2,19.4-43.2,43.2c0,23.8,19.4,43.2,43.2,43.2c23.8,0,43.2-19.4,43.2-43.2
			C217.1,296.1,197.7,276.7,173.9,276.7z"/>
	</g>
</g>
<g id="_x36__00000048492818607637004510000005210442178674502055_">
	<g>
		<circle class="st1" cx="294.2" cy="252.8" r="48.4"/>
	</g>
	<g>
		<path d="M294.2,306.3c-29.5,0-53.5-24-53.5-53.5c0-29.5,24-53.5,53.5-53.5c29.5,0,53.5,24,53.5,53.5
			C347.7,282.3,323.7,306.3,294.2,306.3z M294.2,209.6c-23.8,0-43.2,19.4-43.2,43.2s19.4,43.2,43.2,43.2c23.8,0,43.2-19.4,43.2-43.2
			S318,209.6,294.2,209.6z"/>
	</g>
</g>
<g id="_x35__00000001637873449443937660000014231727315918884768_">
	<g>
		<circle class="st1" cx="214.4" cy="252.8" r="48.4"/>
	</g>
	<g>
		<path d="M214.4,306.3c-29.5,0-53.5-24-53.5-53.5c0-29.5,24-53.5,53.5-53.5s53.5,24,53.5,53.5C267.9,282.3,243.9,306.3,214.4,306.3
			z M214.4,209.6c-23.8,0-43.2,19.4-43.2,43.2s19.4,43.2,43.2,43.2c23.8,0,43.2-19.4,43.2-43.2S238.3,209.6,214.4,209.6z"/>
	</g>
</g>
<g id="_x33__00000155860428582011614620000016109128579411588798_">
	<g>
		<circle class="st1" cx="60.1" cy="252.8" r="48.4"/>
	</g>
	<g>
		<path d="M60.1,306.3c-29.5,0-53.5-24-53.5-53.5c0-29.5,24-53.5,53.5-53.5s53.5,24,53.5,53.5C113.6,282.3,89.6,306.3,60.1,306.3z
			 M60.1,209.6c-23.8,0-43.2,19.4-43.2,43.2s19.4,43.2,43.2,43.2c23.8,0,43.2-19.4,43.2-43.2S83.9,209.6,60.1,209.6z"/>
	</g>
</g>
<g id="_x34__00000012447278234890171550000017517934917963306643_">
	<g>
		<circle class="st1" cx="133.3" cy="252.8" r="48.4"/>
	</g>
	<g>
		<path d="M133.3,306.3c-29.5,0-53.5-24-53.5-53.5c0-29.5,24-53.5,53.5-53.5s53.5,24,53.5,53.5C186.8,282.3,162.8,306.3,133.3,306.3
			z M133.3,209.6c-23.8,0-43.2,19.4-43.2,43.2s19.4,43.2,43.2,43.2c23.8,0,43.2-19.4,43.2-43.2S157.2,209.6,133.3,209.6z"/>
	</g>
</g>
<g id="_x32__00000150079702928159240940000014145671694721288066_">
	<g>
		<circle class="st1" cx="255" cy="185.2" r="48.4"/>
	</g>
	<g>
		<path d="M255,238.7c-29.5,0-53.5-24-53.5-53.5s24-53.5,53.5-53.5s53.5,24,53.5,53.5S284.5,238.7,255,238.7z M255,141.9
			c-23.8,0-43.2,19.4-43.2,43.2s19.4,43.2,43.2,43.2c23.8,0,43.2-19.4,43.2-43.2S278.8,141.9,255,141.9z"/>
	</g>
</g>
<g id="_x31__00000168811942236494110770000008825220662239436446_">
	<g>
		<circle class="st1" cx="100.6" cy="185.2" r="48.4"/>
	</g>
	<g>
		<path d="M100.6,238.7c-29.5,0-53.5-24-53.5-53.5s24-53.5,53.5-53.5s53.5,24,53.5,53.5S130.1,238.7,100.6,238.7z M100.6,141.9
			c-23.8,0-43.2,19.4-43.2,43.2s19.4,43.2,43.2,43.2c23.8,0,43.2-19.4,43.2-43.2S124.5,141.9,100.6,141.9z"/>
	</g>
</g>
<g id="_x30__00000065792370555183833860000012357901881447632019_">
	<g>
		<circle class="st1" cx="173.9" cy="185.2" r="48.4"/>
	</g>
	<g>
		<path d="M173.9,238.7c-29.5,0-53.5-24-53.5-53.5s24-53.5,53.5-53.5s53.5,24,53.5,53.5S203.4,238.7,173.9,238.7z M173.9,141.9
			c-23.8,0-43.2,19.4-43.2,43.2s19.4,43.2,43.2,43.2c23.8,0,43.2-19.4,43.2-43.2S197.7,141.9,173.9,141.9z"/>
	</g>
</g>
<g id="tip_00000137842260499423556400000017776865638852183229_">
	<path d="M196.5,147.6c-0.7,0-1.4-0.2-2.1-0.5c-2.6-1.2-3.7-4.2-2.5-6.8c1.1-2.4,27.3-58.4,82.5-79.9c2.6-1,5.6,0.3,6.6,2.9
		c1,2.6-0.3,5.6-2.9,6.6c-51.3,19.9-76.6,74-76.9,74.6C200.3,146.5,198.4,147.6,196.5,147.6z"/>
</g>
</svg>
