<?xml version="1.0" encoding="UTF-8"?>

<svg id="orange" xmlns="http://www.w3.org/2000/svg" viewBox="0 0 465.7143 337.8571"><defs>


<style>
.cls-1,.cls-2,.cls-3,.cls-4{stroke-width:0px;}.cls-2{fill:#fce06d;}.cls-3{fill:#f7a852;}.cls-4{fill:#f78e1a;}

svg {
    cursor: pointer;
	}

svg:hover #citrus {
    transform-origin: 326.48px 193.89px;
    animation: rotate 2s linear infinite;
}

@keyframes rotate {
  0% {transform: rotate(0deg) translate(0, 0);}
  100% {transform: rotate(360deg) translate(0, 0);}
}

svg:hover #bg {
    transform: rotate(15deg);
    transform-origin: left;
    transition: all 0.5s ease;
}


</style>

<script>
let thePath = document.querySelector("orange");

function logMyId() {
    console.log("Orange");
}

document.addEventListener('click', logMyId);
</script>






</defs><g id="bg"><path class="cls-4" d="M238.5523,228.9844c19.6446-22.4993,31.545-51.9344,31.545-84.1491,0-70.6939-57.3088-128.0026-128.0027-128.0026S14.0919,74.1414,14.0919,144.8353c0,62.4786,44.7631,114.5023,103.9681,125.7498,0,0,18.9145,37.5247,47.3866.1278,20.7571-3.8263,39.7598-12.6602,55.7089-25.2025l17.3968-16.5259Z"/><path class="cls-1" d="M140.5848,292.3756c-.7063,0-1.4126-.0297-2.1214-.0991-12.4978-1.1499-20.6586-12.2871-23.6598-17.1643-61.4381-12.7976-105.7862-67.2099-105.7862-130.2762C9.0174,71.4552,68.7158,11.7568,142.0941,11.7568s133.0791,59.6984,133.0791,133.0791c0,32.1924-11.6477,63.2646-32.7971,87.482-1.8488,2.1115-5.0556,2.3246-7.1596.4857-2.1115-1.8438-2.3295-5.0457-.4857-7.1572,19.536-22.3736,30.2915-51.0716,30.2915-80.8105,0-67.7849-55.1458-122.9283-122.9282-122.9283S19.1683,77.0511,19.1683,144.836c0,58.9822,41.9888,109.7713,99.8384,120.7648,1.5514.2924,2.8748,1.2936,3.586,2.7013.0595.119,6.7359,12.9662,16.8372,13.8732,6.7557.5502,14.1706-4.2824,21.9795-14.5374.7633-1.0062,1.876-1.6902,3.1176-1.9182,19.4121-3.5786,37.9097-11.9451,53.4904-24.1976,2.2007-1.7249,5.3976-1.3482,7.1274.8525,1.7323,2.2056,1.3506,5.3927-.8525,7.1274-16.3564,12.8621-35.6867,21.7689-56.0157,25.8332-9.0233,11.3206-18.3216,17.0404-27.6919,17.0404Z"/><circle class="cls-1" cx="90.45" cy="56.8713" r="6.4692"/><circle class="cls-1" cx="98.9852" cy="96.4794" r="6.4692"/><circle class="cls-1" cx="65.9787" cy="82.9106" r="6.4692"/></g><g id="base"><path class="cls-4" d="M230.0178,111.8663c-19.6446,22.4993-31.545,51.9344-31.545,84.1491,0,70.6939,57.3088,128.0026,128.0027,128.0026s128.0027-57.3087,128.0027-128.0026c0-62.4786-44.7631-114.5023-103.9681-125.7498,0,0-18.9145-37.5247-47.3866-.1278-20.7571,3.8263-39.7598,12.6602-55.7089,25.2025l-17.3968,16.5259Z"/><path class="cls-1" d="M326.4777,329.092c-73.3807,0-133.0816-59.6959-133.0816-133.0767,0-32.1924,11.6477-63.2646,32.7971-87.4869,1.8463-2.1139,5.0531-2.3246,7.1621-.4857,2.1115,1.8438,2.3295,5.0507.4857,7.1621-19.536,22.3736-30.294,51.0716-30.294,80.8105,0,67.7799,55.1458,122.9258,122.9307,122.9258s122.9257-55.1458,122.9257-122.9258c0-58.9822-41.9864-109.7737-99.8384-120.7648-1.5514-.2949-2.8748-1.2936-3.5835-2.7013-.0644-.119-6.7408-12.9686-16.8372-13.8732-6.8251-.6022-14.1755,4.2874-21.982,14.5374-.7683,1.0037-1.8785,1.6877-3.1176,1.9157-19.4195,3.5786-37.9121,11.9476-53.4904,24.2-2.2106,1.7397-5.3976,1.3506-7.1274-.8525s-1.3531-5.3927.8525-7.1274c16.3514-12.8621,35.6817-21.7714,56.0132-25.8357,9.6998-12.1756,19.7367-17.8632,29.8132-16.9437,12.5003,1.1524,20.6586,12.2921,23.6623,17.1668,61.4406,12.7976,105.7862,67.2124,105.7862,130.2787,0,73.3808-59.6959,133.0767-133.0766,133.0767Z"/></g><g id="yellow"><circle class="cls-2" cx="326.4754" cy="193.8888" r="99.8157"/><path class="cls-1" d="M326.4777,300.1362c-58.5856,0-106.2521-47.6616-106.2521-106.2472s47.6665-106.2497,106.2521-106.2497c24.2818,0,47.1362,7.975,66.0997,23.06,2.1908,1.7472,2.5526,4.9391.8079,7.1324-1.7397,2.1883-4.9317,2.5551-7.1324.8129-17.1445-13.6427-37.813-20.8544-59.7752-20.8544-52.9898,0-96.1013,43.109-96.1013,96.0988s43.1115,96.0963,96.1013,96.0963,96.0963-43.1065,96.0963-96.0963c0-19.3699-5.7347-38.0361-16.5844-53.9811-1.5762-2.3196-.9764-5.4769,1.3432-7.0531,2.3196-1.5811,5.467-.9665,7.0531,1.3432,11.9947,17.6352,18.339,38.2789,18.339,59.6909,0,58.5856-47.6615,106.2472-106.2472,106.2472Z"/></g><g id="citrus"><path class="cls-3" d="M252.7639,172.6606c7.2768-25.2599,27.2228-45.2048,52.4815-52.4814,5.8387-1.682,11.6474,2.838,11.6474,8.9141v45.9973c0,5.0907-4.1268,9.2174-9.2174,9.2174h-45.9974c-6.0761,0-10.5961-5.8087-8.9141-11.6474Z"/><path class="cls-3" d="M335.9949,175.0905v-46.0029c0-6.0751,5.8066-10.5939,11.6451-8.9149,25.2914,7.2731,45.261,27.2204,52.5463,52.4859,1.6837,5.8391-2.8366,11.6494-8.9136,11.6494h-46.0605c-5.0907,0-9.2174-4.1268-9.2174-9.2174Z"/><path class="cls-3" d="M305.2435,267.5992c-25.2659-7.2853-45.2143-27.2547-52.485-52.5447-1.6785-5.8383,2.8403-11.6444,8.9151-11.6444h46.0018c5.0907,0,9.2174,4.1268,9.2174,9.2174v46.0582c0,6.077-5.8103,10.5972-11.6494,8.9136Z"/><path class="cls-3" d="M345.2124,203.4101h46.0647c6.0758,0,10.5949,5.8078,8.9145,11.6466-7.2798,25.2957-27.2541,45.2685-52.5502,52.5479-5.8388,1.6802-11.6465-2.8389-11.6465-8.9146v-46.0625c0-5.0907,4.1268-9.2174,9.2174-9.2174Z"/><path class="cls-1" d="M307.6778,189.3836h-46.0011c-4.555,0-8.7383-2.0916-11.4842-5.7396-2.7013-3.5885-3.5389-8.1088-2.3048-12.3912,7.7222-26.7898,29.159-48.2316,55.9488-55.9513,4.3022-1.2342,8.8027-.3916,12.3912,2.3072,3.648,2.7459,5.7396,6.9316,5.7396,11.4842v45.9962c0,7.8808-6.4087,14.2945-14.2895,14.2945ZM307.7422,124.8972c-.342,0-.7038.0471-1.0904.1586-23.4689,6.7631-42.2491,25.5432-49.0097,49.0072v.005c-.4709,1.6307.2131,2.8748.6642,3.4745.8079,1.0756,2.0371,1.6902,3.3704,1.6902h46.0011c2.28,0,4.1387-1.8587,4.1387-4.1436v-45.9962c0-1.3333-.6146-2.5625-1.6902-3.3704-.456-.347-1.2887-.8253-2.3841-.8253ZM252.7649,172.6604h.0496-.0496Z"/><path class="cls-1" d="M391.2738,189.3836h-46.0606c-7.8808,0-14.2945-6.4137-14.2945-14.2945v-46.0011c0-4.5525,2.0916-8.7358,5.7347-11.4817,3.5885-2.7038,8.1039-3.5464,12.3912-2.3097,26.8245,7.7148,48.291,29.1565,56.0182,55.9562,1.2342,4.2824.3965,8.8027-2.3048,12.3912-2.7459,3.648-6.9292,5.7396-11.4842,5.7396ZM345.1438,124.8923c-1.0954,0-1.9281.4833-2.3841.8253-1.0756.8079-1.6902,2.0371-1.6902,3.3704v46.0011c0,2.2849,1.8587,4.1436,4.1436,4.1436h46.0606c1.3333,0,2.5625-.6146,3.3704-1.6902.451-.5997,1.135-1.8438.6642-3.4745-6.7706-23.4739-25.5705-42.259-49.0692-49.0172-.3866-.1115-.7534-.1586-1.0954-.1586Z"/><path class="cls-1" d="M307.7571,273.0292c-1.3085,0-2.622-.1834-3.9206-.5551-26.7997-7.7222-48.2415-29.1887-55.9537-56.0182-1.2342-4.2824-.3916-8.7978,2.3097-12.3863,2.7459-3.643,6.9292-5.7347,11.4792-5.7347h46.0061c7.8808,0,14.2895,6.4137,14.2895,14.2945v46.0557c0,4.555-2.0916,8.7383-5.7396,11.4842-2.503,1.8835-5.4571,2.8599-8.4706,2.8599ZM261.6717,208.4859c-1.3333,0-2.5625.6146-3.3704,1.6902-.451.5948-1.135,1.8438-.6642,3.4745,6.7557,23.5037,25.5358,42.3036,49.0147,49.0692h0c1.6257.4808,2.8748-.2082,3.4745-.6642,1.0756-.8079,1.6902-2.0371,1.6902-3.3704v-46.0557c0-2.2849-1.8587-4.1436-4.1387-4.1436h-46.0061Z"/><path class="cls-1" d="M345.1339,273.0391c-3.0135,0-5.9726-.9814-8.4805-2.8648-3.643-2.7459-5.7347-6.9292-5.7347-11.4842v-46.0606c0-7.8808,6.4137-14.2945,14.2945-14.2945h46.0656c4.5501,0,8.7333,2.0916,11.4792,5.7347,2.7013,3.5885,3.5439,8.1088,2.3097,12.3912-7.7222,26.8344-29.1887,48.3009-56.0231,56.0231-1.2936.3717-2.6071.5551-3.9107.5551ZM345.2132,208.4859c-2.2849,0-4.1436,1.8587-4.1436,4.1436v46.0606c0,1.3333.6146,2.5625,1.6902,3.3754.5997.4461,1.8537,1.1202,3.4795.6642,23.5036-6.7656,42.3085-25.5705,49.0741-49.0742.4709-1.6356-.2181-2.8797-.6691-3.4795-.8079-1.0756-2.0322-1.6902-3.3655-1.6902h-46.0656Z"/></g></svg>