<?xml version="1.0" encoding="utf-8"?>
<!-- Generator: Adobe Illustrator 28.1.0, SVG Export Plug-In . SVG Version: 6.00 Build 0)  -->
<svg version="1.1" id="pome" xmlns="http://www.w3.org/2000/svg" xmlns:xlink="http://www.w3.org/1999/xlink" x="0px" y="0px"
	 viewBox="0 0 430 500" style="enable-background:new 0 0 430 500;" xml:space="preserve">
<style type="text/css">
	.st0{fill:#E14531;}
	.st1{fill:#F5E9A5;}
</style>
<script>let thePath = document.querySelector(&quot;pome&quot;);

function logMyId() {
    console.log(&quot;Pomegranate&quot;);
}

document.addEventListener(&apos;click&apos;, logMyId);
	</script>
<g id="red-top_00000179641680442404333600000017286401794904056745_">
	<path class="st0" d="M240.3,86.2c0,0,20.2-49.5-25.4-76.3c-45.6,26.8-25.4,76.3-25.4,76.3c-35.3-31.9-70.3-14.4-70.3-14.4
		c45.5,7.2,46.8,44.3,46.8,44.3h98c0,0,1.3-37.1,46.8-44.3C310.7,71.8,275.6,54.3,240.3,86.2z"/>
</g>
<g id="red-base_00000096019484262051988700000017203995621487784637_">
	<path class="st0" d="M419.9,298.7c0-103.5-91.8-187.4-205-187.4c-113.3,0-205.1,83.9-205.1,187.4c0,0.8,0,1.5,0.1,2.3
		c0,0.8-0.1,1.5-0.1,2.3c0,103.5,91.8,187.4,205.1,187.4c113.2,0,205-83.9,205-187.4c0-0.8,0-1.5-0.1-2.3
		C419.9,300.2,419.9,299.4,419.9,298.7z"/>
</g>
<g id="yellow_00000032649705392513837670000016823319211260025742_">
	<path class="st1" d="M393.1,299c0-90-79.8-162.9-178.2-162.9C116.4,136.1,36.6,209,36.6,299c0,0.7,0,1.3,0.1,2c0,0.7-0.1,1.3-0.1,2
		c0,90,79.8,162.9,178.3,162.9c98.4,0,178.2-72.9,178.2-162.9c0-0.7,0-1.3-0.1-2C393.1,300.3,393.1,299.6,393.1,299z"/>
</g>
<g id="red-inside_00000085220649146696706130000018200411555717585798_">
	<g>
		<path class="st0" d="M185,230c-0.5-8.4-1.7-16.9-5.6-24.1c-14.9-26.4-47.3-14.6-65.5,1.6c-2.3,2-4.8,3.9-7,6
			c-11.7,11.2-20.5,25-26.5,40c-6.5,16.3-9.8,34-9.8,51.6c-0.1,20.7,4.2,41.4,12.8,60c3.7,8.1,8.3,15.7,13.8,22.7
			s12.1,12.3,18.7,18.1c19,16.8,54,25.7,65.6-4.2c4.7-12.1,4.4-27.6,4.5-40.4c0.2-21.5-0.4-43-0.3-64.5
			C185.7,274.6,185.8,252.3,185,230z"/>
	</g>
	<g>
		<path class="st0" d="M351.3,253.5c-6-15-14.8-28.8-26.5-40c-2.2-2.1-4.7-4-7-6c-18.2-16.2-50.7-28-65.5-1.6
			c-3.9,7.1-5.1,15.7-5.6,24.1c-0.8,22.3-0.8,44.6-0.6,66.9c0.2,21.5-0.4,43-0.3,64.5c0.1,12.8-0.2,28.3,4.5,40.4
			c11.6,30,46.5,21,65.6,4.2c6.6-5.9,13.2-11.1,18.7-18.1s10.1-14.6,13.8-22.7c8.6-18.6,12.9-39.3,12.8-60
			C361.1,287.4,357.8,269.8,351.3,253.5z"/>
	</g>
</g>
<g id="seeds_00000127025036204055396820000014790583568000073631_">
	<g>
		<g>
			<circle cx="141.4" cy="250.9" r="8.6"/>
		</g>
		<g>
			<circle cx="109.2" cy="278.7" r="8.6"/>
		</g>
		<g>
			<circle cx="141.4" cy="307.1" r="8.6"/>
		</g>
		<g>
			<circle cx="110.5" cy="334.6" r="8.6"/>
		</g>
		<g>
			<circle cx="141.4" cy="363.3" r="8.6"/>
		</g>
	</g>
	<g>
		<g>
			<circle cx="290.3" cy="250.9" r="8.6"/>
		</g>
		<g>
			<circle cx="322.5" cy="278.7" r="8.6"/>
		</g>
		<g>
			<circle cx="290.3" cy="307.1" r="8.6"/>
		</g>
		<g>
			<circle cx="321.2" cy="334.6" r="8.6"/>
		</g>
		<g>
			<circle cx="290.3" cy="363.3" r="8.6"/>
		</g>
	</g>
</g>
<g id="stroke-out_00000102515553819594370680000005588211405939516817_">
	<g>
		<path d="M338.3,160.3c-1.3,0-2.7-0.4-3.9-1.2c-31.1-21.5-68.1-34-106.9-36.2c-3.8-0.2-6.6-3.4-6.4-7.2c0.2-3.8,3.5-6.6,7.2-6.4
			c41.4,2.4,80.8,15.7,113.9,38.6c3.1,2.1,3.9,6.4,1.7,9.5C342.6,159.3,340.5,160.3,338.3,160.3z"/>
	</g>
	<g>
		<path d="M214.9,497.5C98,497.5,3,410.3,3,303.2C3,211,71.2,129,158.4,112c-2-8.9-9.7-28.6-40.4-33.5c-2.9-0.5-5.2-2.8-5.7-5.7
			c-0.5-2.9,1-5.8,3.7-7.1c1.4-0.7,30.2-14.6,62.8,4.3c-2.1-18.8,1-47.3,32.6-65.9c2.1-1.3,4.8-1.3,6.9,0
			C249.9,22.6,253,51.2,250.9,70c32.6-18.9,61.4-5,62.8-4.3c2.7,1.3,4.1,4.2,3.7,7.1c-0.5,2.9-2.7,5.2-5.7,5.7
			c-39.5,6.3-43,41.2-43.1,42.7c-0.3,3.7-3.5,6.6-7.4,6.2c-3.7-0.3-6.5-3.6-6.2-7.3c0-0.4,2.8-30.3,29.6-46.3
			c-11.2,0.5-25.4,4.5-39.7,17.5c-2.4,2.1-5.9,2.4-8.5,0.5c-2.6-1.8-3.6-5.2-2.4-8.2c0.7-1.7,16.3-41.9-19.1-65.6
			c-35.4,23.8-19.8,63.9-19.1,65.7c1.2,2.9,0.2,6.3-2.4,8.1c-2.6,1.8-6.1,1.6-8.5-0.5c-14-12.7-27.9-16.8-39-17.4
			c17.8,10.5,23.8,26.5,25.9,35.5h6c3.6,0,6.6,2.9,6.8,6.5c0.1,3.6-2.6,6.8-6.2,7.1c-89.1,7.6-161.6,88.4-161.6,180.2
			c0,99.6,88.9,180.6,198.3,180.6c109.3,0,198.3-81,198.3-180.6c0-49.4-21.4-95.4-60.4-129.8c-2.8-2.5-3.1-6.8-0.6-9.6
			s6.8-3.1,9.6-0.6c41.9,37,65,86.7,65,140C426.8,410.3,331.7,497.5,214.9,497.5z"/>
	</g>
</g>
<g id="stroke-in_00000136403725419541281780000010763654771505200281_">
	<g>
		<path d="M153.2,428.2c-15.5,0-31.5-7.9-42-17.2l-3.1-2.7c-5.6-4.9-11.4-9.9-16.4-16.3c-5.6-7.1-10.6-15.2-14.6-24.1
			C68.2,348.7,63.6,327,63.7,305l0,0c0.1-18.7,3.7-37.4,10.3-54.1c6.5-16.4,16.2-31.1,28.1-42.4c1.4-1.4,2.9-2.6,4.5-3.9
			c0.9-0.8,1.8-1.5,2.7-2.3c11.7-10.4,32-21.4,50.6-18.3c10.8,1.8,19.6,8.2,25.4,18.5c4.8,8.7,5.9,18.5,6.5,27
			c0.8,22.8,0.8,45.8,0.6,67.3c-0.1,10.6,0,21.2,0.1,31.9c0.1,10.9,0.2,21.8,0.1,32.6v2.9c-0.1,12.9-0.1,27.5-4.9,39.9
			c-4.7,12.2-13.3,20.1-24.8,22.9C159.7,427.9,156.5,428.2,153.2,428.2z M77.3,305.2c-0.1,20,4.1,39.7,12.1,57.1
			c3.6,7.8,8,15,13,21.3c4.3,5.4,9.3,9.8,14.7,14.5l3.2,2.8c11.8,10.4,28,15.8,39.3,13c7.1-1.7,12.3-6.6,15.3-14.6
			c3.9-10,3.9-23.3,4-35v-2.9c0.1-10.8,0-21.6-0.1-32.4c-0.1-10.7-0.2-21.4-0.1-32.1c0.2-21.4,0.2-44.2-0.6-66.5
			c-0.4-6.8-1.3-14.8-4.8-21c-3.8-6.7-8.9-10.5-15.7-11.7c-12.9-2.1-29.1,6-39.3,15.1c-1,0.9-2.1,1.8-3.1,2.6
			c-1.3,1-2.5,2.1-3.7,3.2c-10.4,10-19,23-24.9,37.6C80.7,271.2,77.4,288.2,77.3,305.2L77.3,305.2z"/>
	</g>
	<g>
		<path d="M278.5,428.2c-3.3,0-6.5-0.4-9.6-1.1c-11.5-2.8-20.1-10.8-24.8-22.9c-4.8-12.3-4.9-26.9-4.9-39.8v-3
			c-0.1-10.9,0-21.9,0.1-32.8c0.1-10.6,0.2-21.1,0.1-31.7c-0.2-21.4-0.3-44.3,0.6-67.2c0.5-8.6,1.7-18.5,6.4-27.1
			c5.8-10.4,14.6-16.8,25.4-18.6c18.6-3.1,38.9,7.9,50.6,18.3c0.9,0.8,1.8,1.5,2.7,2.3c1.5,1.3,3,2.5,4.5,3.9
			c11.8,11.3,21.6,26,28.1,42.4c6.7,16.8,10.2,35.5,10.3,54.1l0,0c0.1,22-4.5,43.7-13.4,62.9c-4.1,8.8-9,16.9-14.7,24.1
			c-5,6.4-10.8,11.4-16.4,16.3l-3.2,2.8C310,420.3,293.9,428.2,278.5,428.2z M278.5,197.2c-1.5,0-3,0.1-4.4,0.4
			c-6.8,1.1-12,5-15.8,11.7c-3.4,6.2-4.3,14.2-4.7,21.1c-0.8,22.4-0.7,45.1-0.6,66.4c0.1,10.7,0,21.3-0.1,32
			c-0.1,10.8-0.2,21.7-0.1,32.5v3c0.1,11.7,0.1,25,4,35c3.1,7.9,8.2,12.9,15.3,14.6c11.3,2.8,27.5-2.6,39.3-13l3.2-2.8
			c5.3-4.6,10.4-9,14.6-14.4c5-6.3,9.4-13.5,13-21.3c8-17.4,12.2-37.1,12.1-57.1l0,0c-0.1-17-3.3-34-9.4-49.2
			c-5.8-14.6-14.4-27.6-24.9-37.6c-1.2-1.1-2.4-2.2-3.7-3.2c-1-0.9-2.1-1.7-3.1-2.6C304.2,204.5,290.5,197.2,278.5,197.2z"/>
	</g>
</g>
</svg>
