<?xml version="1.0" encoding="utf-8"?>
<!-- Generator: Adobe Illustrator 28.1.0, SVG Export Plug-In . SVG Version: 6.00 Build 0)  -->
<svg version="1.1" id="strawberry" xmlns="http://www.w3.org/2000/svg" xmlns:xlink="http://www.w3.org/1999/xlink" x="0px" y="0px"
	 viewBox="0 0 364.4 500" style="enable-background:new 0 0 364.4 500;" xml:space="preserve">


<style type="text/css">
	.st0{fill:#E54D62;}
	.st1{fill:#8CD97A;}
	.st2{fill:#7AC18D;}
	.st3{fill:#F5E9A5;}

svg {
    cursor: pointer;
	}

svg:hover #seeds_00000119087244430319449760000004877240238187810712_ {
	opacity: 0;
	animation: fade 2s linear forwards;
}

@keyframes fade {
	0% {opacity: 0;}
    100% {opacity: 1;}
}

svg:hover #base {
    transform-origin: 50px 180px;
    animation: grow 0.3s linear forwards;
}

@keyframes grow {
    0% {transform: scaleY(0);}
    100% {transform: scaleY(1);}
}

svg:hover #leafb-left, svg:hover #leafb-right, svg:hover #tip {
    transform-origin: 50px 180px;
    animation: growleaves 0.6s alternate;
}

@keyframes growleaves {
    0% {transform: scaleY(0);}
    100% {transform: scaleY(1);}
}

svg:hover #leafs-left, svg:hover #leafs-right {
    transform-origin: 50px 180px;
    animation: growleavesback 0.9s linear forwards;
}

@keyframes growleavesback  {
    0% {transform: scaleY(0);}
    100% {transform: scaleY(1);}
}

svg:hover #tip {
    transform-origin: 50px 180px;
    animation: growtip 1.2s linear forwards;
}

@keyframes growtip {
    0% {transform: scaleY(0);}
    100% {transform: scaleY(1);}
}


</style>


<script>
let thePath = document.querySelector("strawberry");

function logMyId() {
    console.log("Strawberry");
}

document.addEventListener('click', logMyId);
</script>



<g id="base">
	<g id="red_base">
		<path class="st0" d="M243.5,454.6c-26.3,49-92.2,49-118.5,0l-47.8-89l-47.8-89c-26.3-49,6.6-110.3,59.2-110.3h95.6h95.6
			c52.7,0,85.6,61.3,59.2,110.3l-47.8,89L243.5,454.6z"/>
	</g>
	<g id="stroke_base">
		<path d="M184.2,498.8c-27.1,0-51.4-15-64.9-40.1l-95.6-178c-13.9-25.9-13.2-57.7,1.9-82.9C39.4,174.7,63,161,88.6,161h191.1
			c25.7,0,49.2,13.8,63,36.8c15.1,25.2,15.8,57,1.9,82.9l-95.6,178C235.6,483.8,211.3,498.8,184.2,498.8z M88.6,173.7
			c-21.4,0-40.4,11.2-52,30.6c-12.8,21.4-13.4,48.3-1.6,70.3l95.6,178c11.2,20.9,31.3,33.4,53.6,33.4s42.4-12.5,53.6-33.4l0,0
			l95.6-178c11.8-22,11.2-48.9-1.6-70.3c-11.6-19.4-30.6-30.6-52-30.6H88.6z"/>
	</g>
</g>
<g id="tip">
	<g id="fill-tip">
		<path class="st1" d="M183.5,149.2L183.5,149.2c-9.9,0-17.9-8.1-17.9-17.9V26.1c0-9.9,8.1-17.9,17.9-17.9h0
			c9.9,0,17.9,8.1,17.9,17.9v105.2C201.5,141.1,193.4,149.2,183.5,149.2z"/>
	</g>
	<g id="stroke-tip">
		<path d="M183.5,156.6c-13.4,0-24.3-10.9-24.3-24.3V27.1c0-13.4,10.9-24.3,24.3-24.3c13.4,0,24.3,10.9,24.3,24.3v105.2
			C207.9,145.7,196.9,156.6,183.5,156.6z M183.5,15.6c-6.4,0-11.6,5.2-11.6,11.6v105.2c0,6.4,5.2,11.6,11.6,11.6
			c6.4,0,11.6-5.2,11.6-11.6V27.1C195.1,20.8,189.9,15.6,183.5,15.6z"/>
	</g>
</g>
<g id="leafs-right">
	<g id="fill-sright">
		<path class="st2" d="M289.8,151.7c-47.4,25.7-106.2,8.6-106.2,8.6s17.9-58.6,65.2-84.3S355,67.4,355,67.4S337.1,126,289.8,151.7z"
			/>
	</g>
	<g id="stroke-sright">
		<path d="M227.9,173.3c-25.4,0-44.7-5.4-46.1-5.9c-1.6-0.5-3-1.6-3.8-3.1c-0.8-1.5-1-3.3-0.5-4.9c0.8-2.5,19.2-61.4,68.3-88
			c49.1-26.6,108.5-9.9,111.1-9.1c1.6,0.5,3,1.6,3.8,3.1c0.8,1.5,1,3.3,0.5,4.9c-0.8,2.5-19.2,61.4-68.3,88l0,0
			C271.3,170,247.7,173.3,227.9,173.3z M192,156.8c16.3,3.4,59.3,9.5,94.7-9.7l0,0c35.4-19.2,53.8-58.6,59.9-74.1
			c-16.3-3.4-59.3-9.5-94.8,9.7C216.4,101.9,198,141.3,192,156.8z"/>
	</g>
</g>
<g id="leafb-right">
	<g id="fill-bright">
		<path class="st1" d="M282.9,121.8c-38.1,38.1-99.4,38.5-99.4,38.5S184,99,222,60.9s99.4-38.5,99.4-38.5S321,83.7,282.9,121.8z"/>
	</g>
	<g id="stroke-bright">
		<path d="M183.5,167.7c-1.7,0-3.3-0.7-4.5-1.9c-1.2-1.2-1.9-2.9-1.9-4.6c0-2.6,0.9-64.4,40.4-103.9C257,18,318.8,17,321.4,17
			c1.8-0.1,3.4,0.7,4.6,1.9c1.2,1.2,1.9,2.9,1.9,4.6c0,2.6-0.9,64.4-40.4,103.9c0,0,0,0,0,0C247.9,166.8,186.2,167.7,183.5,167.7
			C183.6,167.7,183.5,167.7,183.5,167.7z M314.6,30.2C298,31.6,255,38,226.6,66.5c-28.5,28.5-34.8,71.5-36.2,88.1
			c16.6-1.4,59.6-7.8,88.1-36.3C306.8,89.8,313.2,46.8,314.6,30.2z M282.9,122.8L282.9,122.8L282.9,122.8z"/>
	</g>
</g>
<g id="leafs-left">
	<g id="fill-sleft">
		<path class="st2" d="M78,151.7c47.4,25.7,106.2,8.6,106.2,8.6S166.3,101.7,119,76S12.7,67.4,12.7,67.4S30.6,126,78,151.7z"/>
	</g>
	<g id="stroke-sleft">
		<path d="M139.9,173.3c-19.8,0-43.4-3.3-64.9-15c-49.1-26.6-67.5-85.6-68.3-88c-0.5-1.6-0.3-3.4,0.5-4.9c0.8-1.5,2.2-2.6,3.8-3.1
			c2.5-0.7,62-17.4,111.1,9.1c49.1,26.6,67.6,85.6,68.3,88c0.5,1.6,0.3,3.4-0.5,4.9c-0.8,1.5-2.2,2.6-3.8,3.1
			C184.6,167.9,165.2,173.3,139.9,173.3z M21.2,73c6.1,15.5,24.4,54.9,59.8,74.1c35.4,19.2,78.5,13,94.8,9.7
			c-6.1-15.5-24.4-54.9-59.9-74.1C80.5,63.5,37.5,69.6,21.2,73z"/>
	</g>
</g>
<g id="leafb-left">
	<g id="fill-bleft">
		<path class="st1" d="M84.8,121.8c38.1,38.1,99.4,38.5,99.4,38.5s-0.4-61.3-38.5-99.4S46.3,22.4,46.3,22.4S46.8,83.7,84.8,121.8z"
			/>
	</g>
	<g id="stroke-bleft">
		<path d="M184.2,167.7C184.2,167.7,184.2,167.7,184.2,167.7c-2.7,0-64.4-0.9-103.9-40.4c0,0,0,0,0,0C40.8,87.8,39.9,26.1,39.9,23.5
			c0-1.7,0.7-3.4,1.9-4.6c1.2-1.2,2.8-1.7,4.6-1.9c2.6,0,64.4,0.9,103.8,40.4c39.5,39.5,40.4,101.3,40.4,103.9
			c0,1.7-0.7,3.4-1.9,4.6C187.5,167.1,185.9,167.7,184.2,167.7z M89.4,118.3c28.5,28.6,71.5,34.9,88.1,36.3
			C176,138,169.6,95,141.2,66.5C112.7,38,69.7,31.6,53.1,30.2C54.5,46.8,60.9,89.8,89.4,118.3L89.4,118.3z"/>
	</g>
</g>
<g id="seeds_00000119087244430319449760000004877240238187810712_">
	<g>
		<ellipse class="st3" cx="183.5" cy="252.8" rx="12.5" ry="16.7"/>
		<path d="M183.5,275.9c-10.6,0-18.9-10.2-18.9-23.1c0-13,8.3-23.1,18.9-23.1c10.6,0,18.9,10.2,18.9,23.1
			C202.5,265.7,194.1,275.9,183.5,275.9z M183.5,242.4c-2.9,0-6.2,4.4-6.2,10.4c0,5.9,3.2,10.4,6.2,10.4c2.9,0,6.2-4.4,6.2-10.4
			C189.7,246.8,186.4,242.4,183.5,242.4z"/>
	</g>
	<g>
		<ellipse class="st3" cx="95.7" cy="252.8" rx="12.5" ry="16.7"/>
		<path d="M95.7,275.9c-10.6,0-18.9-10.2-18.9-23.1c0-13,8.3-23.1,18.9-23.1s18.9,10.2,18.9,23.1
			C114.6,265.7,106.3,275.9,95.7,275.9z M95.7,242.4c-2.9,0-6.2,4.4-6.2,10.4c0,5.9,3.3,10.4,6.2,10.4c2.9,0,6.2-4.4,6.2-10.4
			C101.8,246.8,98.6,242.4,95.7,242.4z"/>
	</g>
	<g>
		<ellipse class="st3" cx="271.4" cy="252.8" rx="12.5" ry="16.7"/>
		<path d="M271.4,275.9c-10.6,0-18.9-10.2-18.9-23.1c0-13,8.3-23.1,18.9-23.1c10.6,0,18.9,10.2,18.9,23.1
			C290.3,265.7,282,275.9,271.4,275.9z M271.4,242.4c-2.9,0-6.2,4.4-6.2,10.4c0,5.9,3.2,10.4,6.2,10.4c2.9,0,6.2-4.4,6.2-10.4
			C277.5,246.8,274.3,242.4,271.4,242.4z"/>
	</g>
	<g>
		<ellipse class="st3" cx="137.5" cy="320.6" rx="12.5" ry="16.7"/>
		<path d="M137.5,343.7c-10.6,0-18.9-10.2-18.9-23.1c0-13,8.3-23.1,18.9-23.1c10.6,0,18.9,10.2,18.9,23.1
			C156.5,333.6,148.2,343.7,137.5,343.7z M137.5,310.3c-2.9,0-6.2,4.4-6.2,10.3c0,5.9,3.2,10.4,6.2,10.4c2.9,0,6.2-4.4,6.2-10.4
			C143.7,314.7,140.4,310.3,137.5,310.3z"/>
	</g>
	<g>
		<ellipse class="st3" cx="225.4" cy="320.6" rx="12.5" ry="16.7"/>
		<path d="M225.4,343.7c-10.6,0-18.9-10.2-18.9-23.1c0-13,8.3-23.1,18.9-23.1c10.6,0,18.9,10.2,18.9,23.1
			C244.3,333.6,236,343.7,225.4,343.7z M225.4,310.3c-2.9,0-6.2,4.4-6.2,10.3c0,5.9,3.2,10.4,6.2,10.4c2.9,0,6.2-4.4,6.2-10.4
			C231.6,314.7,228.3,310.3,225.4,310.3z"/>
	</g>
	<g>
		<ellipse class="st3" cx="183.5" cy="388.5" rx="12.5" ry="16.7"/>
		<path d="M183.5,411.6c-10.6,0-18.9-10.2-18.9-23.1c0-13,8.3-23.1,18.9-23.1c10.6,0,18.9,10.2,18.9,23.1
			C202.5,401.4,194.1,411.6,183.5,411.6z M183.5,378.1c-2.9,0-6.2,4.4-6.2,10.4c0,5.9,3.2,10.4,6.2,10.4c2.9,0,6.2-4.4,6.2-10.4
			C189.7,382.5,186.4,378.1,183.5,378.1z"/>
	</g>
</g>
</svg>
